<svg xmlns="http://www.w3.org/2000/svg" xmlns:xlink="http://www.w3.org/1999/xlink" version="1.1" x="0px" y="0px" viewBox="0 0 512 640" enable-background="new 0 0 512 512" xml:space="preserve"><g><path d="M256,108.5c-81.3,0-147.5,66.2-147.5,147.5S174.7,403.5,256,403.5c81.3,0,147.5-66.2,147.5-147.5S337.3,108.5,256,108.5z    M256,387.1c-72.3,0-131.1-58.8-131.1-131.1c0-72.3,58.8-131.1,131.1-131.1c72.3,0,131.1,58.8,131.1,131.1   C387.1,328.3,328.3,387.1,256,387.1z"/><rect x="247.8" y="2" width="16.4" height="81.9"/><rect x="247.8" y="427.9" width="16.4" height="82.1"/><polygon points="197.7,93.9 178.9,48.5 163.8,54.8 182.6,100.2  "/><polygon points="314.2,417.9 333.1,463.5 348.2,457.2 329.3,411.6  "/><rect x="413.1" y="172.6" transform="matrix(-0.9239 0.3827 -0.3827 -0.9239 911.2009 180.2167)" width="49.2" height="16.4"/><rect x="49.7" y="323" transform="matrix(0.9239 -0.3827 0.3827 0.9239 -121.1 53.7004)" width="49.4" height="16.4"/><rect x="49.7" y="172.6" transform="matrix(0.9239 0.3827 -0.3827 0.9239 74.8394 -14.6844)" width="49.2" height="16.4"/><rect x="412.9" y="323" transform="matrix(-0.9239 -0.3827 0.3827 -0.9239 715.0753 804.6884)" width="49.4" height="16.4"/><polygon points="348.2,54.8 333.1,48.5 314.3,93.9 329.4,100.2  "/><polygon points="163.8,457.2 178.9,463.5 197.8,417.9 182.7,411.6  "/><rect x="398.4" y="64.4" transform="matrix(0.7071 0.7071 -0.7071 0.7071 193.6045 -256.6745)" width="16.4" height="81.9"/><rect x="97.2" y="365.5" transform="matrix(-0.7071 -0.7071 0.7071 -0.7071 -107.4963 768.6069)" width="16.4" height="82.1"/><rect x="428.1" y="247.8" width="81.9" height="16.4"/><rect x="2" y="247.8" width="82.1" height="16.4"/><rect x="365.7" y="398.4" transform="matrix(-0.7071 -0.7072 0.7072 -0.7071 406.5943 981.7072)" width="81.9" height="16.4"/><rect x="64.4" y="97.2" transform="matrix(0.7071 0.7071 -0.7071 0.7071 105.4398 -43.6732)" width="82.1" height="16.4"/></g><text x="0" y="527" fill="#000000" font-size="5px" font-weight="bold" font-family="'Helvetica Neue', Helvetica, Arial-Unicode, Arial, Sans-serif">Created by ProSymbols</text><text x="0" y="532" fill="#000000" font-size="5px" font-weight="bold" font-family="'Helvetica Neue', Helvetica, Arial-Unicode, Arial, Sans-serif">from the Noun Project</text></svg>