<svg xmlns="http://www.w3.org/2000/svg" xmlns:xlink="http://www.w3.org/1999/xlink" version="1.1" x="0px" y="0px" viewBox="0 0 512 640" enable-background="new 0 0 512 512" xml:space="preserve"><g><path d="M344.3,160.3v16.4c34.1,0,61.8,27.7,61.8,61.8h16.4C422.5,195.4,387.4,160.3,344.3,160.3z"/><path d="M457.4,234.7c-2-60.7-52-109.4-113.2-109.4c-28,0-54.6,10.2-75.4,28.8c-6.8-1.7-13.8-2.5-20.9-2.5c-7.5,0-14.7,1-21.6,2.8   c-15.1-18.2-37.5-29.1-61.3-29.1c-19.2,0-37.5,6.8-52,19.4c-4.4-1-9-1.5-13.5-1.5c-32.6,0-59.4,25.4-61.7,57.4   C16.5,208.7,2,229.4,2,252.6c0,30.8,25.1,55.9,55.9,55.9h50.6c0,43.1,35.1,78.2,78.2,78.2h245.1c43.1,0,78.2-35.1,78.2-78.2   C510,275.1,488.7,245.6,457.4,234.7z M57.9,292.1c-21.8,0-39.5-17.7-39.5-39.5c0-18,12.2-33.7,29.7-38.2l6.3-1.6l-0.3-7.9   c0-25.1,20.4-45.4,45.4-45.4c10.5,0,18,3.4,18,3.4l3.5-3.4c11.9-11.6,27.5-17.9,44.1-17.9c16.9,0,33,6.9,44.8,18.8   c-27.8,13.6-47.4,41.6-48.8,74.3c-26,9-45.1,31-50.8,57.4H57.9z M431.8,370.3H186.7c-34.1,0-61.8-27.7-61.8-61.8   c0-28.1,19.1-52.7,46.5-59.8l6.3-1.6l-0.2-8.6c0-38.9,31.7-70.6,70.6-70.6c7,0,14,1,20.7,3.1l4.6,1.4l3.5-3.4   c18.2-17.7,42.2-27.4,67.4-27.4c53.4,0,96.8,43.4,96.8,97.5l-0.2,7.9l6.3,1.6c27.4,7.1,46.5,31.7,46.5,59.8   C493.6,342.6,465.9,370.3,431.8,370.3z"/></g><text x="0" y="527" fill="#000000" font-size="5px" font-weight="bold" font-family="'Helvetica Neue', Helvetica, Arial-Unicode, Arial, Sans-serif">Created by ProSymbols</text><text x="0" y="532" fill="#000000" font-size="5px" font-weight="bold" font-family="'Helvetica Neue', Helvetica, Arial-Unicode, Arial, Sans-serif">from the Noun Project</text></svg>