<?xml version="1.0" encoding="UTF-8" standalone="no"?>
<svg
   version="1.1"
   x="0px"
   y="0px"
   viewBox="0 0 508 508"
   enable-background="new 0 0 512 512"
   xml:space="preserve"
   id="svg5"
   sodipodi:docname="drizzle.svg"
   width="508"
   height="508"
   inkscape:version="1.4 (e7c3feb1, 2024-10-09)"
   xmlns:inkscape="http://www.inkscape.org/namespaces/inkscape"
   xmlns:sodipodi="http://sodipodi.sourceforge.net/DTD/sodipodi-0.dtd"
   xmlns="http://www.w3.org/2000/svg"
   xmlns:svg="http://www.w3.org/2000/svg"><defs
     id="defs5" /><sodipodi:namedview
     id="namedview5"
     pagecolor="#ffffff"
     bordercolor="#000000"
     borderopacity="0.25"
     inkscape:showpageshadow="2"
     inkscape:pageopacity="0.0"
     inkscape:pagecheckerboard="0"
     inkscape:deskcolor="#d1d1d1"
     inkscape:zoom="1.5765625"
     inkscape:cx="254.35084"
     inkscape:cy="302.23984"
     inkscape:window-width="2144"
     inkscape:window-height="1186"
     inkscape:window-x="0"
     inkscape:window-y="25"
     inkscape:window-maximized="0"
     inkscape:current-layer="svg5" /><g
     id="g4"
     transform="translate(-2,-2)"><path
       d="m 337.9,34.8 v 16.4 c 49.7,0 90.1,40.4 90.1,90.1 h 16.4 C 444.5,82.6 396.7,34.8 337.9,34.8 Z"
       id="path1" /><path
       d="m 51.2,403.5 c 0,27.1 22.1,49.2 49.2,49.2 27.1,0 49.2,-22.1 49.2,-49.2 0,-24.8 -49.2,-86.8 -49.2,-86.8 0,0 -49.2,62 -49.2,86.8 z m 49.1,32.8 c -18.1,0 -32.8,-14.7 -32.8,-32.8 0,-12.5 18.1,-40.7 32.8,-60.3 14.7,19.6 32.8,47.9 32.8,60.3 0,18.1 -14.7,32.8 -32.8,32.8 z"
       id="path2" /><path
       d="m 387.1,460.8 c 0,27.1 22.1,49.2 49.2,49.2 27.1,0 49.2,-22.1 49.2,-49.2 0,-24.8 -49.2,-86.8 -49.2,-86.8 0,0 -49.2,62 -49.2,86.8 z m 49.2,32.8 c -18.1,0 -32.8,-14.7 -32.8,-32.8 0,-12.5 18.1,-40.7 32.8,-60.3 14.7,19.6 32.8,47.9 32.8,60.3 -0.1,18.1 -14.8,32.8 -32.8,32.8 z"
       id="path3" /><path
       d="m 479.8,149.9 c 0.5,-4.6 0.7,-8.7 0.7,-12.7 C 480.5,62.7 419.5,2 344.5,2 304.3,2 266.9,19.3 240.9,49.7 226.8,44 212.1,41 197,41 139,41 90.8,82.5 82.1,138.7 H 69.2 c -37,0 -67.2,30 -67.2,66.8 0,36.8 30.1,66.8 67.2,66.8 h 29.2 c 20.1,25.7 51.2,41 83.8,41 32.7,0 63.7,-15.2 83.8,-41 h 32.1 c -0.7,2.9 -1.2,5.7 -1.2,8.2 0,27.1 22.1,49.2 49.2,49.2 27.1,0 49.2,-22.1 49.2,-49.2 0,-2.5 -0.4,-5.3 -1.2,-8.2 h 48.7 c 37,0 67.2,-30 67.2,-66.8 0,-22.4 -11.4,-43.3 -30.2,-55.6 z M 346.1,313.4 c -18.1,0 -32.8,-14.7 -32.8,-32.8 0,-12.5 18.1,-40.7 32.8,-60.3 14.7,19.6 32.8,47.9 32.8,60.3 0,18.1 -14.7,32.8 -32.8,32.8 z M 442.8,256 h -54.7 c -11.8,-24.5 -41.9,-62.3 -41.9,-62.3 0,0 -30.2,37.8 -42,62.3 h -46.4 c 0,0 -26.1,41 -75.6,41 -49.8,0 -75.6,-41 -75.6,-41 H 69.2 c -28,0 -50.8,-22.6 -50.8,-50.4 0,-27.8 22.8,-50.4 50.8,-50.4 h 27.6 l 0.7,-7.5 c 4.7,-51.4 47.4,-90.2 99.5,-90.2 26.8,0 48.8,12.5 48.8,12.5 0,0 33.2,-51.6 98.7,-51.6 66,0 119.6,53.3 119.6,118.8 0,8.8 -1.9,21.5 -1.9,21.5 0,0 31.4,10.7 31.4,46.9 0,27.8 -22.8,50.4 -50.8,50.4 z"
       id="path4" /></g></svg>
