<svg xmlns="http://www.w3.org/2000/svg" xmlns:xlink="http://www.w3.org/1999/xlink" version="1.1" x="0px" y="0px" viewBox="0 0 512 640" enable-background="new 0 0 512 512" xml:space="preserve"><g><rect x="247.6" y="49.4" width="16.7" height="50"/><rect x="166.5" y="89.4" transform="matrix(0.3829 0.9238 -0.9238 0.3829 203.0658 -108.4926)" width="32.5" height="16.7"/><rect x="89.4" y="124.7" transform="matrix(0.7071 0.7071 -0.7071 0.7071 127.583 -41.9589)" width="50" height="16.7"/><rect x="64.5" y="193.3" transform="matrix(0.9239 0.3827 -0.3827 0.9239 83.2613 -15.2415)" width="30.8" height="16.7"/><rect x="30.8" y="266.2" width="50" height="16.7"/><rect x="431.1" y="266.2" width="50" height="16.7"/><rect x="416.5" y="192.8" transform="matrix(-0.9239 0.3827 -0.3827 -0.9239 910.3419 221.2383)" width="33.3" height="16.7"/><rect x="389.2" y="108" transform="matrix(0.7071 0.7071 -0.7071 0.7071 210.4734 -242.1183)" width="16.7" height="50"/><polygon points="343.1,85.9 327.7,79.5 315.3,109.6 330.7,115.9  "/><path d="M31.1,344.8c10.8,11,30,11.1,41,0.1c4.6-4.6,12.8-4.5,17.3-0.1c10.8,11,30,11.1,41,0.1c0.6-0.6,3.9-3.6,8.7-3.6   c3.3,0,6.4,1.3,8.6,3.5c10.8,11,30,11.1,41,0.1c4.6-4.6,12.8-4.5,17.3-0.1c10.8,11,30,11.1,41,0.1c4.6-4.6,12.8-4.5,17.3-0.1   c10.8,11,30,11.1,41,0.1c4.6-4.6,12.8-4.5,17.3-0.1c10.8,11,30,11.1,41,0.1c2.3-2.3,5.4-3.6,8.7-3.6c4.7,0,8.1,3,8.6,3.5   c10.8,11,30,11.1,41,0.1c4.6-4.6,12.8-4.5,17.3-0.1c5.4,5.5,12.7,8.6,20.5,8.6c7.7,0,15-3,20.5-8.5c4.8-4.8,12.6-4.8,17.4,0   L510,333c-11.3-11.2-29.7-11.2-41,0c-4.7,4.7-12.7,4.8-17.5-0.1c-11.1-10.9-30.1-10.8-40.9,0.1c-4.5,4.5-11.8,4.8-16.8,0.4   c8-18.7,12.3-38.4,12.3-58.9c0-82.8-67.3-150.1-150.1-150.1c-82.8,0-150.1,67.3-150.1,150.1c0,20.5,4.3,40.2,12.3,58.9   c-4.8,4.2-12.3,4.2-16.9-0.4c-11.1-10.9-30.1-10.8-40.9,0.1c-4.7,4.7-12.7,4.8-17.5-0.1C31.8,322.1,12.8,322.2,2,333l11.8,11.8   C18.3,340.3,26.6,340.3,31.1,344.8z M256,141.1c73.6,0,133.4,59.9,133.4,133.4c0,17.6-3.4,34.7-10.1,50.8   c-9.5-2.2-20.1,0.7-27.1,7.7c-4.7,4.7-12.7,4.8-17.5-0.1c-5.5-5.4-12.8-8.4-20.4-8.4c-7.8,0-15,3-20.5,8.4   c-4.7,4.7-12.7,4.8-17.5-0.1c-11.1-10.9-30.1-10.8-40.9,0.1c-4.7,4.7-12.7,4.8-17.5-0.1c-11.1-10.9-30.1-10.8-40.9,0.1   c-4.7,4.7-12.7,4.8-17.5-0.1c-7.2-7-17.7-9.8-27-7.6c-6.7-16.1-10.1-33.2-10.1-50.8C122.6,201,182.4,141.1,256,141.1z"/><path d="M469,387.7c-4.7,4.7-12.7,4.8-17.5-0.1c-11.1-10.9-30.1-10.7-40.9,0.1c-4.7,4.7-12.6,4.9-17.6-0.2   c-1.7-1.6-3.4-2.9-4.8-3.7c-10.9-7.1-26.6-5.4-36,3.9c-4.7,4.7-12.7,4.8-17.5-0.1c-11.1-10.9-30.1-10.7-40.9,0.1   c-4.7,4.7-12.7,4.8-17.5-0.1c-11.1-10.9-30.1-10.7-40.9,0.1c-4.7,4.7-12.7,4.8-17.5-0.1c-11.1-10.9-30.1-10.7-40.9,0.1   c-4.7,4.7-12.7,4.8-17.5-0.1c-5.5-5.4-12.8-8.4-20.4-8.4c-5.7,0-11.1,1.6-15,4.2c-1.9,1.1-3.8,2.5-5.5,4.2   c-4.7,4.7-12.7,4.8-17.5-0.1c-11.1-10.9-30.1-10.7-40.9,0.1c-4.7,4.7-12.7,4.8-17.5-0.1c-11.1-10.9-30.1-10.7-40.9,0.1l11.8,11.8   c4.6-4.6,12.8-4.5,17.3-0.1c10.8,11,30,11.1,41,0.1c4.6-4.6,12.8-4.5,17.3-0.1c10.8,11,30,11.1,41,0.1c0.6-0.6,1.3-1.1,2.4-1.8   c4.1-2.7,11-2.1,14.9,1.7c10.8,11,29.9,11.1,41,0.1c4.6-4.6,12.8-4.5,17.3-0.1c10.8,11,30,11.1,41,0.1c4.6-4.6,12.8-4.5,17.3-0.1   c10.8,11,30,11.1,41,0.1c4.6-4.6,12.8-4.5,17.3-0.1c10.8,11,29.9,11.1,41,0.1c3.9-3.9,10.3-4.8,15.3-1.6c0.7,0.4,1.5,1,2,1.5   c10.8,11,30,11.1,41,0.1c4.6-4.6,12.8-4.5,17.3-0.1c5.4,5.5,12.7,8.6,20.5,8.6c7.7,0,15-3,20.5-8.5c4.8-4.8,12.6-4.8,17.4,0   l11.7-11.9C498.7,376.4,480.3,376.4,469,387.7z"/><path d="M469,442.3c-4.7,4.7-12.7,4.8-17.5-0.1c-11.1-10.9-30.1-10.8-40.9,0.1c-4.7,4.7-12.6,4.9-17.6-0.2   c-1.7-1.6-3.4-2.9-4.8-3.7c-10.9-7.1-26.6-5.4-36,3.9c-4.7,4.7-12.7,4.8-17.5-0.1c-11.1-10.9-30.1-10.8-40.9,0.1   c-4.7,4.7-12.7,4.8-17.5-0.1c-11.1-10.9-30.1-10.8-40.9,0.1c-4.7,4.7-12.7,4.8-17.5-0.1c-11.1-10.9-30.1-10.8-40.9,0.1   c-4.7,4.7-12.7,4.8-17.5-0.1c-5.5-5.4-12.8-8.4-20.4-8.4c-5.7,0-11.1,1.6-15,4.2c-1.9,1.1-3.8,2.5-5.5,4.2   c-4.7,4.7-12.7,4.8-17.5-0.1c-11.1-10.9-30.1-10.8-40.9,0.1c-4.7,4.7-12.7,4.8-17.5-0.1c-11.1-10.9-30.1-10.8-40.9,0.1l11.8,11.8   c4.6-4.6,12.8-4.5,17.3-0.1c10.8,11,30,11.1,41,0.1c4.6-4.6,12.8-4.5,17.3-0.1c10.8,11,30,11.1,41,0.1c0.6-0.6,1.3-1.1,2.4-1.8   c4.1-2.7,11-2.1,14.9,1.7c10.8,11,30,11.1,41,0.1c4.6-4.6,12.8-4.5,17.3-0.1c10.8,11,30,11.1,41,0.1c4.6-4.6,12.8-4.5,17.3-0.1   c10.8,11,30,11.1,41,0.1c4.6-4.6,12.8-4.5,17.3-0.1c10.8,11,30,11.1,41,0.1c3.9-3.9,10.3-4.8,15.3-1.6c0.7,0.4,1.5,1,2,1.5   c10.8,11,30,11.1,41,0.1c4.6-4.6,12.8-4.5,17.3-0.1c5.4,5.5,12.7,8.6,20.5,8.6c7.7,0,15-3,20.5-8.5c4.8-4.8,12.6-4.8,17.4,0   l11.7-11.9C498.7,431,480.3,431,469,442.3z"/></g><text x="0" y="527" fill="#000000" font-size="5px" font-weight="bold" font-family="'Helvetica Neue', Helvetica, Arial-Unicode, Arial, Sans-serif">Created by ProSymbols</text><text x="0" y="532" fill="#000000" font-size="5px" font-weight="bold" font-family="'Helvetica Neue', Helvetica, Arial-Unicode, Arial, Sans-serif">from the Noun Project</text></svg>