<svg xmlns="http://www.w3.org/2000/svg" xmlns:xlink="http://www.w3.org/1999/xlink" version="1.1" x="0px" y="0px" viewBox="0 0 512 640" enable-background="new 0 0 512 512" xml:space="preserve"><g><path d="M133.1,485.4c0,13.6,11,24.6,24.6,24.6c13.6,0,24.6-11,24.6-24.6c0-10.5-24.6-47.2-24.6-47.2S133.1,474.9,133.1,485.4z    M157.7,493.6c-4.5,0-8.2-3.7-8.2-8.2c0.1-2.5,3.5-9.6,8.2-17.6c4.7,7.9,8.1,15.1,8.2,17.6C165.9,489.9,162.2,493.6,157.7,493.6z"/><path d="M231.4,485.4c0,13.6,11,24.6,24.6,24.6c13.6,0,24.6-11,24.6-24.6c0-10.5-24.6-47.2-24.6-47.2S231.4,474.9,231.4,485.4z    M256,493.6c-4.5,0-8.2-3.7-8.2-8.2c0.1-2.5,3.5-9.6,8.2-17.6c4.7,7.9,8.1,15.1,8.2,17.6C264.2,489.9,260.5,493.6,256,493.6z"/><path d="M329.7,485.4c0,13.6,11,24.6,24.6,24.6c13.6,0,24.6-11,24.6-24.6c0-10.5-24.6-47.2-24.6-47.2S329.7,474.9,329.7,485.4z    M354.3,493.6c-4.5,0-8.2-3.7-8.2-8.2c0.1-2.5,3.5-9.6,8.2-17.6c4.7,7.9,8.1,15.1,8.2,17.6C362.5,489.9,358.8,493.6,354.3,493.6z"/><path d="M206.8,372.7c0,0-24.6,36.7-24.6,47.2c0,13.6,11,24.6,24.6,24.6c13.6,0,24.6-11,24.6-24.6   C231.4,409.4,206.8,372.7,206.8,372.7z M206.8,428.1c-4.5,0-8.2-3.7-8.2-8.2c0.1-2.5,3.5-9.6,8.2-17.6c4.7,7.9,8.1,15.1,8.2,17.6   C215,424.4,211.4,428.1,206.8,428.1z"/><path d="M108.5,372.7c0,0-24.6,36.7-24.6,47.2c0,13.6,11,24.6,24.6,24.6s24.6-11,24.6-24.6C133.1,409.4,108.5,372.7,108.5,372.7z    M108.5,428.1c-4.5,0-8.2-3.7-8.2-8.2c0.1-2.5,3.5-9.6,8.2-17.6c4.7,7.9,8.1,15.1,8.2,17.6C116.7,424.4,113,428.1,108.5,428.1z"/><path d="M305.2,372.7c0,0-24.6,36.7-24.6,47.2c0,13.6,11,24.6,24.6,24.6s24.6-11,24.6-24.6C329.7,409.4,305.2,372.7,305.2,372.7z    M305.2,428.1c-4.5,0-8.2-3.7-8.2-8.2c0.1-2.5,3.5-9.6,8.2-17.6c4.7,7.9,8.1,15.1,8.2,17.6C313.4,424.4,309.7,428.1,305.2,428.1z"/><path d="M378.9,419.9c0,13.6,11,24.6,24.6,24.6c13.6,0,24.6-11,24.6-24.6c0-10.5-24.6-47.2-24.6-47.2S378.9,409.4,378.9,419.9z    M403.5,428.1c-4.5,0-8.2-3.7-8.2-8.2c0.1-2.5,3.5-9.6,8.2-17.6c4.7,7.9,8.1,15.1,8.2,17.6C411.7,424.4,408,428.1,403.5,428.1z"/><path d="M305.2,51.2v16.4c38.9,0,70.5,31.6,70.5,70.5H392C392,90.1,353.1,51.2,305.2,51.2z"/><path d="M441.1,133.9C439,60.8,378.8,2,305.2,2c-44.4,0-85.3,21.3-110.8,57.3c-11.5-5.4-24-8.2-36.7-8.2   c-46.5,0-84.6,36.8-86.8,82.8C30,146.1,2,183.3,2,226.5c0,32.1,15.7,61.7,42.2,79.8c9.3,33.3,39.3,56.2,74.1,56.2   c27.7,0,53.5-15.3,67.1-39.3h227.9c53.3,0,96.7-43.4,96.7-96.7C510,183.3,482,146.1,441.1,133.9z M413.3,306.8h-238   c0,0-14.7,39.3-56.9,39.3c-49,0-59.7-50-59.7-50s-40.2-19.2-40.2-69.6c0-68.1,69.1-79.7,69.1-79.7l-0.3-8.7   c0-38.9,31.6-70.5,70.5-70.5c24.7,0,42.1,13.5,42.1,13.5s31.1-62.7,105.4-62.7c66,0,119.6,53.7,119.6,120.3l-0.2,8.1   c0,0,69.1,11.3,69.1,79.7C493.6,270.8,457.6,306.8,413.3,306.8z"/></g><text x="0" y="527" fill="#000000" font-size="5px" font-weight="bold" font-family="'Helvetica Neue', Helvetica, Arial-Unicode, Arial, Sans-serif">Created by ProSymbols</text><text x="0" y="532" fill="#000000" font-size="5px" font-weight="bold" font-family="'Helvetica Neue', Helvetica, Arial-Unicode, Arial, Sans-serif">from the Noun Project</text></svg>