<svg xmlns="http://www.w3.org/2000/svg" xmlns:xlink="http://www.w3.org/1999/xlink" version="1.1" x="0px" y="0px" viewBox="0 0 512 640" enable-background="new 0 0 512 512" xml:space="preserve"><g><path d="M337.9,195.1v16.4c49.7,0,90.1,40.4,90.1,90.1h16.4C444.5,242.9,396.7,195.1,337.9,195.1z"/><path d="M479.8,313.7c0.5-4.6,0.7-8.7,0.7-12.7c0-74.5-61-135.2-136-135.2c-40.2,0-77.6,17.3-103.6,47.7   c-6.9-2.8-13.9-4.9-21.1-6.3c2.9-8,4.4-16.5,4.4-25.1c0-41.2-33.6-74.8-74.8-74.8S74.7,141,74.7,182.3c0,25.6,13.2,49.1,34.2,62.8   c-13.8,15.9-23.4,35.6-26.8,57.6H69.2c-37,0-67.2,30-67.2,66.8s30.1,66.8,67.2,66.8h29.2c20.1,25.7,51.2,41,83.8,41   c32.7,0,63.7-15.2,83.8-41h176.7c37,0,67.2-30,67.2-66.8C510,347,498.6,326.1,479.8,313.7z M91.1,182.3c0-32.2,26.2-58.4,58.4-58.4   s58.4,26.2,58.4,58.4c0,7.9-1.6,15.7-4.7,22.9c-34.3,0-61.1,9.8-82.3,28C102.7,222.9,91.1,203.5,91.1,182.3z M442.8,419.9h-185   c0,0-23.2,41-75.6,41c-53,0-75.6-41-75.6-41H69.2c-28,0-50.8-22.6-50.8-50.4c0-27.8,22.8-50.4,50.8-50.4h27.6l0.7-7.5   c4.7-51.4,47.4-90.2,99.5-90.2c14.8,0,29.2,3.3,42.8,9.7l5.9,2.8l4-5.2c22.9-29.5,57.4-46.4,94.7-46.4c66,0,119.6,53.3,119.6,118.8   c0,13.4-1.9,21.5-1.9,21.5l4.9,2.7c16.3,8.9,26.5,25.9,26.5,44.2C493.6,397.3,470.8,419.9,442.8,419.9z"/><rect x="141.3" y="34.8" width="16.4" height="57.1"/><rect x="36.8" y="90" transform="matrix(0.7071 0.7071 -0.7071 0.7071 88.5515 -17.4861)" width="57.1" height="16.4"/><rect x="2" y="174.1" width="57.1" height="16.4"/><rect x="57.2" y="237.8" transform="matrix(0.7071 0.7071 -0.7071 0.7071 207.5042 31.7863)" width="16.4" height="57.1"/><rect x="225.4" y="69.6" transform="matrix(0.7071 0.7071 -0.7071 0.7071 137.8211 -136.4213)" width="16.4" height="57.1"/><rect x="88.6" y="73" transform="matrix(0.3827 0.9239 -0.9239 0.3827 141.4123 -49.3172)" width="38.1" height="16.4"/><polygon points="69.1,140.1 33.9,125.5 27.7,140.7 62.8,155.2  "/><rect x="183.2" y="62.1" transform="matrix(0.9238 0.3829 -0.3829 0.9238 45.6542 -67.0783)" width="16.4" height="38.1"/><polygon points="236.1,155.2 271.3,140.7 265,125.5 229.9,140.1  "/><rect x="40.2" y="205.1" transform="matrix(-0.3828 -0.9238 0.9238 -0.3828 -140.1418 354.6365)" width="16.4" height="38.1"/></g><text x="0" y="527" fill="#000000" font-size="5px" font-weight="bold" font-family="'Helvetica Neue', Helvetica, Arial-Unicode, Arial, Sans-serif">Created by ProSymbols</text><text x="0" y="532" fill="#000000" font-size="5px" font-weight="bold" font-family="'Helvetica Neue', Helvetica, Arial-Unicode, Arial, Sans-serif">from the Noun Project</text></svg>