<svg xmlns="http://www.w3.org/2000/svg" xmlns:xlink="http://www.w3.org/1999/xlink" version="1.1" x="0px" y="0px" viewBox="0 0 512 640" enable-background="new 0 0 512 512" xml:space="preserve"><g><g><path d="M412.1,155.2h-16.4c0-36.1-29.6-65.5-66-65.5V73.3C375.2,73.3,412.1,110,412.1,155.2z"/></g><g><path d="M427,328.2H85c-45.8,0-83-37.2-83-83c0-35.1,22.5-66.6,55.3-78.2c6.4-27.4,31.3-47.6,59.8-47.6c3.6,0,7.3,0.4,11.1,1.2    C143.4,87.6,176.6,66,213.2,66c7.1,0,14.2,0.8,21.2,2.4c24-28.8,58.9-45.2,96.4-45.2c69.3,0,125.8,56.4,125.8,125.8    c0,6.1-0.4,12.2-1.3,18.2c32.6,11.8,54.8,42.8,54.8,78C510,290.9,472.8,328.2,427,328.2z M117.1,135.8    c-22.2,0-41.3,16.6-44.6,38.7l-0.8,5.2l-5.1,1.5c-28.4,8.1-48.3,34.5-48.3,64c0,36.7,29.9,66.6,66.6,66.6h342    c36.7,0,66.6-29.9,66.6-66.6c0-30.2-20.5-56.7-49.8-64.4l-7.5-2l1.6-7.6c1.5-7.3,2.3-14.8,2.3-22.2c0-60.3-49.1-109.4-109.4-109.4    c-34.2,0-65.9,15.7-86.8,43.1l-3.4,4.5l-5.4-1.6c-7.2-2.1-14.6-3.2-21.9-3.2c-32.3,0-61.4,20.4-72.5,50.8l-2.7,7.3l-7.5-2.4    C125.6,136.5,121.3,135.8,117.1,135.8z"/></g><g><path fill="none" stroke="#000000" stroke-width="2" stroke-miterlimit="10" d="M10.2,245.2"/></g><g><g><rect x="51.2" y="361.5" transform="matrix(0.7071 0.7071 -0.7071 0.7071 289.3596 70.6822)" width="16.4" height="46.3"/></g><g><rect x="149.5" y="361.5" transform="matrix(0.7071 0.7071 -0.7071 0.7071 318.1552 1.16)" width="16.4" height="46.3"/></g><g><rect x="247.8" y="361.5" transform="matrix(0.7071 0.7071 -0.7071 0.7071 346.9506 -68.3619)" width="16.4" height="46.3"/></g><g><rect x="346.1" y="361.5" transform="matrix(0.7071 0.7071 -0.7071 0.7071 375.7462 -137.8841)" width="16.4" height="46.3"/></g><g><rect x="444.5" y="361.5" transform="matrix(0.7071 0.7071 -0.7071 0.7071 404.5417 -207.406)" width="16.4" height="46.3"/></g></g><g><g><rect x="100.3" y="443.4" transform="matrix(0.7071 0.7071 -0.7071 0.7071 361.6924 59.9176)" width="16.4" height="46.3"/></g><g><rect x="198.6" y="443.4" transform="matrix(0.7071 0.7071 -0.7071 0.7071 390.488 -9.6046)" width="16.4" height="46.3"/></g><g><rect x="297" y="443.4" transform="matrix(0.7071 0.7071 -0.7071 0.7071 419.2835 -79.1265)" width="16.4" height="46.3"/></g><g><rect x="395.3" y="443.4" transform="matrix(0.7071 0.7071 -0.7071 0.7071 448.0791 -148.6487)" width="16.4" height="46.3"/></g></g></g><text x="0" y="527" fill="#000000" font-size="5px" font-weight="bold" font-family="'Helvetica Neue', Helvetica, Arial-Unicode, Arial, Sans-serif">Created by ProSymbols</text><text x="0" y="532" fill="#000000" font-size="5px" font-weight="bold" font-family="'Helvetica Neue', Helvetica, Arial-Unicode, Arial, Sans-serif">from the Noun Project</text></svg>