<svg xmlns="http://www.w3.org/2000/svg" xmlns:xlink="http://www.w3.org/1999/xlink" version="1.1" x="0px" y="0px" viewBox="0 0 512 640" enable-background="new 0 0 512 512" xml:space="preserve"><g><path d="M469,116.2C468.8,53.2,417.4,2,354.3,2c-36.1,0-69.7,16.9-91.4,45.5c-15.2-23.1-41.2-37.3-69.2-37.3   c-25.7,0-49.7,11.7-65.3,31.6c-6.7-2.2-13.6-3.3-20.7-3.3c-29.2,0-54.7,19.2-62.9,46.4C20,89.9,2,111.5,2,137.1   c0,29.4,24.3,53.4,54.1,53.4h28.3c4.1,36.8,35.4,65.5,73.3,65.5h278.6c40.7,0,73.7-33.1,73.7-73.7C510,153.9,494.1,128.6,469,116.2   z M56.1,174.1c-20.8,0-37.7-16.6-37.7-37c0-19.1,14.6-34.9,33.9-36.8l6-0.6l1.2-5.9c4.5-22.5,24.8-38.9,48.2-38.9   c7,0,13.8,1.5,20.3,4.3l6.3,2.8l3.8-5.8c12.3-18.6,33.1-29.7,55.6-29.7c16.5,0,32,6.2,44,16.7c-50.3,0-82.9,27.5-93.4,66.5   c-32.2,5.8-56.4,32-59.9,64.4H56.1z M436.3,239.6H157.7c-31.6,0-57.4-25.7-57.4-57.4c0-29.6,22.2-54.1,51.6-57.1l6-0.6l1.2-6   c6.8-34.4,37.2-59.3,72.3-59.3c20.7,0,36.8,9.5,36.8,9.5L272,63c18.3-27.9,49-44.6,82.3-44.6c54.2,0,98.3,44.1,98.3,98.3   c0,0.8-0.5,10.2-0.5,10.2l5.4,2.2c21.9,8.8,36.1,29.7,36.1,53.2C493.6,213.9,467.9,239.6,436.3,239.6z"/><polygon points="134.5,348.1 149.5,333.1 149.5,354.3 165.9,354.3 165.9,333.1 180.9,348.1 192.4,336.5 177.5,321.5 198.6,321.5    198.6,305.2 177.5,305.2 192.4,290.2 180.9,278.6 165.9,293.6 165.9,272.4 149.5,272.4 149.5,293.6 134.5,278.6 122.9,290.2    137.9,305.2 116.7,305.2 116.7,321.5 137.9,321.5 122.9,336.5  "/><polygon points="337.9,321.5 337.9,305.2 316.7,305.2 331.7,290.2 320.1,278.6 305.2,293.6 305.2,272.4 288.8,272.4 288.8,293.6    273.8,278.6 262.2,290.2 277.2,305.2 256,305.2 256,321.5 277.2,321.5 262.2,336.5 273.8,348.1 288.8,333.1 288.8,354.3    305.2,354.3 305.2,333.1 320.1,348.1 331.7,336.5 316.7,321.5  "/><polygon points="471,290.2 459.4,278.6 444.5,293.6 444.5,272.4 428.1,272.4 428.1,293.6 413.1,278.6 401.5,290.2 416.5,305.2    395.3,305.2 395.3,321.5 416.5,321.5 401.5,336.5 413.1,348.1 428.1,333.1 428.1,354.3 444.5,354.3 444.5,333.1 459.4,348.1    471,336.5 456,321.5 477.2,321.5 477.2,305.2 456,305.2  "/><path d="M354.3,34.8v16.4c36.2,0,65.6,29.4,65.6,65.6h16.4C436.3,71.5,399.5,34.8,354.3,34.8z"/><path d="M223.2,362.5c-18.1,0-32.8,14.7-32.8,32.8c0,18.1,14.7,32.8,32.8,32.8c18.1,0,32.8-14.7,32.8-32.8   C256,377.2,241.3,362.5,223.2,362.5z M223.2,411.7c-9,0-16.4-7.3-16.4-16.4c0-9,7.3-16.4,16.4-16.4c9,0,16.4,7.3,16.4,16.4   C239.6,404.3,232.3,411.7,223.2,411.7z"/><path d="M370.7,362.5c-18.1,0-32.8,14.7-32.8,32.8c0,18.1,14.7,32.8,32.8,32.8c18.1,0,32.8-14.7,32.8-32.8   C403.5,377.2,388.8,362.5,370.7,362.5z M370.7,411.7c-9,0-16.4-7.3-16.4-16.4c0-9,7.3-16.4,16.4-16.4c9,0,16.4,7.3,16.4,16.4   C387.1,404.3,379.7,411.7,370.7,411.7z"/><path d="M157.7,444.5c-18.1,0-32.8,14.7-32.8,32.8c0,18.1,14.7,32.8,32.8,32.8c18.1,0,32.8-14.7,32.8-32.8   C190.5,459.2,175.7,444.5,157.7,444.5z M157.7,493.6c-9,0-16.4-7.3-16.4-16.4c0-9,7.3-16.4,16.4-16.4c9,0,16.4,7.3,16.4,16.4   C174.1,486.3,166.7,493.6,157.7,493.6z"/><path d="M436.3,444.5c-18.1,0-32.8,14.7-32.8,32.8c0,18.1,14.7,32.8,32.8,32.8c18.1,0,32.8-14.7,32.8-32.8   C469,459.2,454.3,444.5,436.3,444.5z M436.3,493.6c-9,0-16.4-7.3-16.4-16.4c0-9,7.3-16.4,16.4-16.4c9,0,16.4,7.3,16.4,16.4   C452.6,486.3,445.3,493.6,436.3,493.6z"/><path d="M297,444.5c-18.1,0-32.8,14.7-32.8,32.8c0,18.1,14.7,32.8,32.8,32.8c18.1,0,32.8-14.7,32.8-32.8   C329.7,459.2,315,444.5,297,444.5z M297,493.6c-9,0-16.4-7.3-16.4-16.4c0-9,7.3-16.4,16.4-16.4c9,0,16.4,7.3,16.4,16.4   C313.4,486.3,306,493.6,297,493.6z"/></g><text x="0" y="527" fill="#000000" font-size="5px" font-weight="bold" font-family="'Helvetica Neue', Helvetica, Arial-Unicode, Arial, Sans-serif">Created by ProSymbols</text><text x="0" y="532" fill="#000000" font-size="5px" font-weight="bold" font-family="'Helvetica Neue', Helvetica, Arial-Unicode, Arial, Sans-serif">from the Noun Project</text></svg>