<svg xmlns="http://www.w3.org/2000/svg" xmlns:xlink="http://www.w3.org/1999/xlink" version="1.1" x="0px" y="0px" viewBox="0 0 512 640" enable-background="new 0 0 512 512" xml:space="preserve"><g><path d="M469,116.2C468.8,53.2,417.4,2,354.3,2c-36.1,0-69.7,16.9-91.4,45.5c-15.2-23.1-41.2-37.3-69.2-37.3   c-25.7,0-49.7,11.7-65.3,31.6c-6.7-2.2-13.6-3.3-20.7-3.3c-29.2,0-54.7,19.2-62.9,46.4C20,89.9,2,111.5,2,137.1   c0,29.4,24.3,53.4,54.1,53.4h28.3c4.1,36.8,35.4,65.5,73.3,65.5h278.6c40.7,0,73.7-33.1,73.7-73.7C510,153.9,494.1,128.6,469,116.2   z M56.1,174.1c-20.8,0-37.7-16.6-37.7-37c0-19.1,14.6-34.9,33.9-36.8l6-0.6l1.2-5.9c4.5-22.5,24.8-38.9,48.2-38.9   c7,0,13.8,1.5,20.3,4.3l6.3,2.8l3.8-5.8c12.3-18.6,33.1-29.7,55.6-29.7c16.5,0,32,6.2,44,16.7c-48.2,0-82.9,27.5-93.4,66.5   c-32.2,5.8-56.4,32-59.9,64.4H56.1z M436.3,239.6H157.7c-31.6,0-57.4-25.7-57.4-57.4c0-29.6,22.2-54.1,51.6-57.1l6-0.6l1.2-6   c6.8-34.4,37.2-59.3,72.3-59.3c10.5,0,20.7,2.2,30.4,6.6l6.4,2.9L272,63c18.3-27.9,49-44.6,82.3-44.6c54.2,0,98.3,44.1,98.3,98.3   c0,0.8-0.5,10.2-0.5,10.2l5.4,2.2c21.9,8.8,36.1,29.7,36.1,53.2C493.6,213.9,467.9,239.6,436.3,239.6z"/><polygon points="177.5,354.3 198.6,354.3 198.6,337.9 177.5,337.9 192.4,323 180.9,311.4 165.9,326.3 165.9,305.2 149.5,305.2    149.5,326.3 134.5,311.4 122.9,323 137.9,337.9 116.7,337.9 116.7,354.3 137.9,354.3 122.9,369.3 134.5,380.9 149.5,365.9    149.5,387.1 165.9,387.1 165.9,365.9 180.9,380.9 192.4,369.3  "/><polygon points="316.7,354.3 337.9,354.3 337.9,337.9 316.7,337.9 331.7,323 320.1,311.4 305.2,326.3 305.2,305.2 288.8,305.2    288.8,326.3 273.8,311.4 262.2,323 277.2,337.9 256,337.9 256,354.3 277.2,354.3 262.2,369.3 273.8,380.9 288.8,365.9 288.8,387.1    305.2,387.1 305.2,365.9 320.1,380.9 331.7,369.3  "/><polygon points="471,323 459.4,311.4 444.5,326.3 444.5,305.2 428.1,305.2 428.1,326.3 413.1,311.4 401.5,323 416.5,337.9    395.3,337.9 395.3,354.3 416.5,354.3 401.5,369.3 413.1,380.9 428.1,365.9 428.1,387.1 444.5,387.1 444.5,365.9 459.4,380.9    471,369.3 456,354.3 477.2,354.3 477.2,337.9 456,337.9  "/><polygon points="262.1,445.9 250.5,434.3 235.5,449.3 235.5,428.1 219.1,428.1 219.1,449.3 204.1,434.3 192.6,445.9 207.5,460.8    186.4,460.8 186.4,477.2 207.5,477.2 192.6,492.2 204.1,503.8 219.1,488.8 219.1,510 235.5,510 235.5,488.8 250.5,503.8    262.1,492.2 247.1,477.2 268.3,477.2 268.3,460.8 247.1,460.8  "/><polygon points="401.4,445.9 389.8,434.3 374.8,449.3 374.8,428.1 358.4,428.1 358.4,449.3 343.4,434.3 331.9,445.9 346.8,460.8    325.6,460.8 325.6,477.2 346.8,477.2 331.9,492.2 343.4,503.8 358.4,488.8 358.4,510 374.8,510 374.8,488.8 389.8,503.8    401.4,492.2 386.4,477.2 407.6,477.2 407.6,460.8 386.4,460.8  "/><path d="M354.3,34.8v16.4c36.2,0,65.6,29.4,65.6,65.6h16.4C436.3,71.5,399.5,34.8,354.3,34.8z"/></g><text x="0" y="527" fill="#000000" font-size="5px" font-weight="bold" font-family="'Helvetica Neue', Helvetica, Arial-Unicode, Arial, Sans-serif">Created by ProSymbols</text><text x="0" y="532" fill="#000000" font-size="5px" font-weight="bold" font-family="'Helvetica Neue', Helvetica, Arial-Unicode, Arial, Sans-serif">from the Noun Project</text></svg>