<svg xmlns="http://www.w3.org/2000/svg" xmlns:xlink="http://www.w3.org/1999/xlink" version="1.1" x="0px" y="0px" viewBox="0 0 512 640" enable-background="new 0 0 512 512" xml:space="preserve"><g><g><path d="M419.9,158.9h-16.4c0-54.2-44.1-98.3-98.3-98.3V44.2C368.4,44.2,419.9,95.6,419.9,158.9z"/></g><g><g><rect x="247.8" y="406.1" transform="matrix(0.7071 0.7071 -0.7071 0.7071 378.5336 -55.2864)" width="16.4" height="46.3"/></g><g><rect x="157.7" y="406.1" transform="matrix(0.7071 0.7071 -0.7071 0.7071 352.1331 8.4468)" width="16.4" height="46.3"/></g><g><rect x="67.5" y="406.1" transform="matrix(0.7071 0.7071 -0.7071 0.7071 325.7327 72.1798)" width="16.4" height="46.3"/></g><g><rect x="428.1" y="406.1" transform="matrix(0.7071 0.7071 -0.7071 0.7071 431.3345 -182.7527)" width="16.4" height="46.3"/></g><g><rect x="337.9" y="406.1" transform="matrix(0.7071 0.7071 -0.7071 0.7071 404.9341 -119.0196)" width="16.4" height="46.3"/></g></g><g><g><rect x="276.5" y="463.4" transform="matrix(0.7071 0.7071 -0.7071 0.7071 427.491 -58.7647)" width="16.4" height="46.3"/></g><g><rect x="186.4" y="463.4" transform="matrix(0.7071 0.7071 -0.7071 0.7071 401.0906 4.9683)" width="16.4" height="46.3"/></g><g><rect x="96.2" y="463.4" transform="matrix(0.7071 0.7071 -0.7071 0.7071 374.6902 68.7013)" width="16.4" height="46.3"/></g><g><rect x="366.6" y="463.4" transform="matrix(0.7071 0.7071 -0.7071 0.7071 453.8916 -122.4981)" width="16.4" height="46.3"/></g></g><g><path d="M121.1,441.4l29.7-94h-45.9l55.3-147.5h74.9l-15.4,41H290L121.1,441.4z M128.5,330.9h44.6L161.5,368l93.3-110.8H196    l15.4-41h-39.8L128.5,330.9z"/></g><g><path d="M356.1,347.3c-30,0-57.7-13.2-76.7-36.4h-69.9l45.2-53.7H196l15.4-41h-39.8L136,310.9H83c-44.7,0-81-36.3-81-81    c0-42,32.1-76.7,73.1-80.6C79.6,92.5,132,48.4,191.9,59.5c29.4-35.9,72.4-56.3,118.8-56.3c84.8,0,153.9,69,153.9,153.9    c0,0,0,0,0,0c27.8,13.5,45.5,41.5,45.5,72.8c0,43.4-34.2,78.9-77.1,80.9C413.9,334.1,386.2,347.3,356.1,347.3z M244.8,294.5h42.8    l2.5,3.3c15.9,21.1,40,33.1,66.2,33.1c26.2,0,50.3-12.1,66.2-33.1l2.5-3.3h4.1c35.8,0,64.8-29,64.8-64.6c0-26.5-16-50.1-40.6-60    l-5.4-2.1l0.4-8.1c0.1-0.9,0.1-1.7,0.1-2.6c0-75.8-61.7-137.5-137.5-137.5c-43,0-82.7,19.7-109,54l-3.2,4.2l-5.2-1.2    c-6.5-1.5-13-2.3-19.2-2.3c-45.7,0-82.8,37.2-82.8,82.8v8.2H83c-35.6,0-64.6,29-64.6,64.6c0,35.6,29,64.6,64.6,64.6h41.7    l35.5-94.7h74.9l-15.4,41H290L244.8,294.5z"/></g></g><text x="0" y="527" fill="#000000" font-size="5px" font-weight="bold" font-family="'Helvetica Neue', Helvetica, Arial-Unicode, Arial, Sans-serif">Created by ProSymbols</text><text x="0" y="532" fill="#000000" font-size="5px" font-weight="bold" font-family="'Helvetica Neue', Helvetica, Arial-Unicode, Arial, Sans-serif">from the Noun Project</text></svg>